<?xml version="1.0" encoding="UTF-8" standalone="no"?>
<!-- Created with Inkscape (http://www.inkscape.org/) -->

<svg
   xmlns:dc="http://purl.org/dc/elements/1.1/"
   xmlns:cc="http://creativecommons.org/ns#"
   xmlns:rdf="http://www.w3.org/1999/02/22-rdf-syntax-ns#"
   xmlns:svg="http://www.w3.org/2000/svg"
   xmlns="http://www.w3.org/2000/svg"
   xmlns:sodipodi="http://sodipodi.sourceforge.net/DTD/sodipodi-0.dtd"
   xmlns:inkscape="http://www.inkscape.org/namespaces/inkscape"
   version="1.1"
   id="svg10"
   width="1287.0295"
   height="500"
   viewBox="0 0 1287.0296 500.00001"
   sodipodi:docname="dynart-gears-logo.svg"
   inkscape:version="0.92.4 (5da689c313, 2019-01-14)">
  <metadata
     id="metadata16">
    <rdf:RDF>
      <cc:Work
         rdf:about="">
        <dc:format>image/svg+xml</dc:format>
        <dc:type
           rdf:resource="http://purl.org/dc/dcmitype/StillImage" />
        <dc:title></dc:title>
      </cc:Work>
    </rdf:RDF>
  </metadata>
  <defs
     id="defs14" />
  <sodipodi:namedview
     pagecolor="#ffffff"
     bordercolor="#666666"
     borderopacity="1"
     objecttolerance="10"
     gridtolerance="10"
     guidetolerance="10"
     inkscape:pageopacity="0"
     inkscape:pageshadow="2"
     inkscape:window-width="1920"
     inkscape:window-height="1017"
     id="namedview12"
     showgrid="false"
     inkscape:zoom="0.29513889"
     inkscape:cx="3.3485468"
     inkscape:cy="-282.86683"
     inkscape:window-x="-8"
     inkscape:window-y="-8"
     inkscape:window-maximized="1"
     inkscape:current-layer="layer5" />
  <g
     inkscape:groupmode="layer"
     id="layer5"
     inkscape:label="Layer 1"
     transform="translate(179.30409,139.02802)"
     style="display:none">
    <rect
       style="fill:#333333;fill-opacity:1;stroke-width:1.16142583"
       id="rect88"
       width="1531.4825"
       height="555.67053"
       x="-243.95293"
       y="-119.32018" />
  </g>
  <g
     inkscape:groupmode="layer"
     id="layer4"
     inkscape:label="Layer 4"
     transform="translate(179.30409,139.02802)">
    <g
       aria-label="Dynart"
       style="font-style:normal;font-weight:normal;font-size:40px;line-height:1.25;font-family:sans-serif;letter-spacing:0px;word-spacing:0px;display:inline;fill:#ffffff;fill-opacity:1;stroke:none"
       id="text22-8"
       transform="translate(-852.61483,-611.16673)">
      <path
         d="M 797.31075,778.0235 V 628.25283 h 34.25067 q 35.264,0 53.09867,10.74133 24.72533,14.79467 30.80533,46.208 1.824,8.71467 1.824,18.24 0,34.25067 -20.46933,54.72 l -6.28267,5.472 -7.49867,4.864 q -1.216,0.608 -2.432,1.216 -16.21333,8.10667 -46.00533,8.30934 -1.216,0 -2.432,0 z m 27.76534,-26.54934 h 6.08 q 24.52266,0 36.48,-6.688 15.40266,-8.30933 20.064,-27.968 1.62133,-6.48533 1.62133,-13.376 0,-23.712 -14.99733,-37.088 -3.648,-3.24266 -7.904,-5.472 -11.75467,-6.08 -35.872,-6.08 h -5.472 z"
         style="font-style:normal;font-variant:normal;font-weight:600;font-stretch:normal;font-size:202.66667175px;font-family:'URW Gothic L';-inkscape-font-specification:'URW Gothic L Semi-Bold';fill:#ffffff"
         id="path24-4"
         inkscape:connector-curvature="0" />
      <path
         d="m 944.51776,815.51683 21.07734,-48.032 -41.14134,-101.73867 h 30.80534 l 24.928,72.75734 27.1573,-72.75734 h 31.008 l -64.8533,149.77067 z"
         style="font-style:normal;font-variant:normal;font-weight:600;font-stretch:normal;font-size:202.66667175px;font-family:'URW Gothic L';-inkscape-font-specification:'URW Gothic L Semi-Bold';fill:#ffffff"
         id="path26-4"
         inkscape:connector-curvature="0" />
      <path
         d="M 1047.7443,778.0235 V 665.74616 h 24.928 v 10.74134 q 12.9706,-12.36267 28.1706,-13.376 1.6214,0 3.4454,0 23.9146,0 35.0613,16.21333 7.0933,10.336 7.904,29.792 0.2027,3.85067 0.2027,8.71467 v 60.192 h -26.9547 v -54.92267 q 0,-21.07733 -5.2693,-28.17067 -5.472,-7.09333 -16.2134,-7.09333 -13.376,0 -19.8613,10.336 -4.256,6.89067 -4.4587,24.32 0,1.216 0,2.63467 v 52.896 z"
         style="font-style:normal;font-variant:normal;font-weight:600;font-stretch:normal;font-size:202.66667175px;font-family:'URW Gothic L';-inkscape-font-specification:'URW Gothic L Semi-Bold';fill:#ffffff"
         id="path28-7"
         inkscape:connector-curvature="0" />
      <path
         d="M 1280.9611,665.74616 V 778.0235 h -24.7253 v -14.592 q -13.376,15.2 -31.2107,17.024 -2.8373,0.20267 -6.08,0.20267 -26.5493,0 -42.7627,-18.84801 -13.7813,-16.21333 -13.7813,-39.52 0,-27.968 18.6453,-44.992 15.808,-14.18666 38.5067,-14.18666 22.0907,0 35.0613,15.40266 0.8107,1.01334 1.6214,2.22934 v -14.99734 z m -58.5707,22.09067 q -17.8346,0 -26.9546,14.18667 -5.8774,8.91733 -5.8774,20.87466 0,18.848 14.1867,27.76534 8.1067,5.26933 19.0507,5.26933 16.0106,0 24.5226,-10.13333 7.4987,-10.13334 8.1067,-23.104 0,-19.25334 -13.7813,-28.98134 -8.3094,-5.87733 -19.2534,-5.87733 z"
         style="font-style:normal;font-variant:normal;font-weight:600;font-stretch:normal;font-size:202.66667175px;font-family:'URW Gothic L';-inkscape-font-specification:'URW Gothic L Semi-Bold';fill:#ffffff"
         id="path30-7"
         inkscape:connector-curvature="0" />
      <path
         d="M 1299.0568,778.0235 V 665.74616 h 24.7253 v 10.944 q 7.296,-10.74133 15.808,-12.768 3.4454,-0.81066 8.512,-0.81066 h 2.0267 v 25.94133 q -24.1173,0.608 -24.1173,26.54933 v 62.42134 z"
         style="font-style:normal;font-variant:normal;font-weight:600;font-stretch:normal;font-size:202.66667175px;font-family:'URW Gothic L';-inkscape-font-specification:'URW Gothic L Semi-Bold';fill:#ffffff"
         id="path32-4"
         inkscape:connector-curvature="0" />
      <path
         d="m 1378.7976,778.0235 0.075,-88.57824 h -13.1733 l -0.075,-26.54416 h 13.1733 v -34.64827 h 26.9547 v 34.64827 l 13.7426,0.14974 0.075,26.54416 -13.7426,-0.14974 -0.075,88.57824 z"
         style="font-style:normal;font-variant:normal;font-weight:600;font-stretch:normal;font-size:202.66667175px;font-family:'URW Gothic L';-inkscape-font-specification:'URW Gothic L Semi-Bold';fill:#ffffff"
         id="path34-3"
         inkscape:connector-curvature="0"
         sodipodi:nodetypes="ccccccccccccc" />
    </g>
  </g>
  <g
     inkscape:groupmode="layer"
     id="layer3"
     inkscape:label="Layer 3"
     style="display:inline"
     transform="translate(179.30409,139.02802)">
    <path
       id="path3863"
       d="m 645.28789,55.695712 c 2.17404,7.45385 5.19107,14.6415 9.00674,21.38546 l -10.87021,13.70977 c -3.54945,4.48119 -3.15014,10.870198 0.843,14.907708 l 18.72337,18.72337 c 4.03751,4.0375 10.42652,4.39201 14.90771,0.84255 l 13.62103,-10.78147 c 7.01017,4.03795 14.46403,7.18765 22.22846,9.40606 l 2.04094,17.52543 c 0.66552,5.67913 5.45728,9.93847 11.13641,9.93847 h 26.4878 c 5.67913,0 10.47089,-4.25979 11.13642,-9.93847 l 1.9522,-16.90428 c 8.34122,-2.17404 16.32749,-5.41292 23.82571,-9.62789 l 13.17735,10.42652 c 4.48119,3.54945 10.8702,3.15014 14.90771,-0.843 l 18.72337,-18.72337 c 4.03751,-4.0375 4.39245,-10.426518 0.843,-14.907708 l -10.24905,-12.99987 c 4.25934,-7.36557 7.58696,-15.21829 9.80537,-23.426396 l 15.79507,-1.8191 c 5.67957,-0.665521 9.93847,-5.457285 9.93847,-11.136412 V 14.96528 c 0,-5.6791266 -4.25935,-10.4708906 -9.93847,-11.1364126 l -15.57323,-1.819096 c -2.13012,-8.119377 -5.32419,-15.8838084 -9.40561,-23.1601904 l 9.58352,-12.112514 c 3.54946,-4.481186 3.15014,-10.870204 -0.84299,-14.907708 l -18.67901,-18.679005 c -4.0375,-4.037504 -10.42652,-4.392449 -14.90771,-0.842995 l -11.75756,9.317318 c -7.63133,-4.481186 -15.79552,-7.897536 -24.35814,-10.204682 l -1.77472,-15.218286 c -0.66553,-5.679127 -5.45729,-9.938472 -11.13642,-9.938472 h -26.4878 c -5.67913,0 -10.47089,4.259345 -11.13641,9.938472 l -1.77473,15.218286 c -8.7849,2.351514 -17.17049,5.900968 -24.97929,10.559627 l -12.20125,-9.672263 c -4.48118,-3.549454 -10.8702,-3.150141 -14.90771,0.842995 l -18.72337,18.723373 c -4.0375,4.037504 -4.39245,10.426522 -0.84299,14.907709 l 10.20468,12.91114 c -4.08187,7.365118 -7.18765,15.2182864 -9.22858,23.3820324 l -16.32749,1.863463 C 622.39435,5.6035944 618.135,10.395358 618.135,16.074485 v 26.487804 c 0,5.679127 4.25935,10.470887 9.93848,11.136417 z m 95.96837,-71.65461 c 24.13629,0 43.7914,19.6551044 43.7914,43.791394 0,24.136291 -19.65511,43.791396 -43.7914,43.791396 -24.13584,0 -43.79139,-19.655105 -43.79139,-43.791396 0,-24.1362896 19.6551,-43.791394 43.79139,-43.791394 z"
       inkscape:connector-curvature="0"
       style="fill:#00d8ff;fill-opacity:1;stroke-width:0.44368181" />
    <path
       id="path3865"
       d="M 1003.1168,62.217832 989.14081,50.4159 c -4.3032,-3.63819 -10.6483,-3.460718 -14.7298,0.399314 l -7.72,7.232008 c -6.5217,-3.15014 -13.4431,-5.368546 -20.5869,-6.655222 l -2.17309,-10.648363 c -1.1092,-5.501654 -6.2116,-9.317318 -11.8028,-8.873636 l -18.23537,1.552886 c -5.59039,0.48805 -9.98284,5.057973 -10.16031,10.692732 l -0.3545,10.825833 c -7.01062,2.52899 -13.62148,5.9897 -19.65555,10.33779 l -9.22814,-6.12281 c -4.70391,-3.10578 -10.95938,-2.21841 -14.59713,2.0853 l -11.80193,14.06471 c -3.63864,4.30372 -3.46117,10.64837 0.39842,14.73024 l 8.07545,8.60698 c -2.79563,6.300288 -4.7922,12.911588 -5.94533,19.699478 l -11.53573,2.35151 c -5.50165,1.1092 -9.31732,6.21154 -8.87363,11.80238 l 1.55288,18.23532 c 0.48805,5.59039 5.05797,9.98284 10.69273,10.16032 l 12.46746,0.39887 c 2.26367,5.94533 5.23589,11.58053 8.82927,16.8599 l -6.96536,10.51526 c -3.10577,4.70303 -2.21841,10.95894 2.08486,14.59713 l 13.97598,11.80194 c 4.30415,3.63819 10.64836,3.46072 14.73068,-0.39931 l 9.13984,-8.56306 c 5.98971,2.79519 12.28954,4.8805 18.7673,6.12281 l 2.52943,12.51182 c 1.1092,5.50166 6.21154,9.31732 11.80198,8.87364 l 18.23529,-1.55289 c 5.5904,-0.48805 9.9828,-5.05753 10.1603,-10.69273 l 0.3993,-12.24606 c 6.6552,-2.35151 12.9551,-5.54602 18.7673,-9.49435 l 10.072,6.65523 c 4.703,3.10577 10.9585,2.21841 14.59719,-2.0853 l 11.8019,-13.97598 c 3.6377,-4.30371 3.4603,-10.64836 -0.3993,-14.73024 l -8.1198,-8.60698 c 2.9731,-6.30028 5.1476,-12.95551 6.389,-19.78865 l 11.092,-2.26278 c 5.5017,-1.1092 9.3173,-6.21155 8.8737,-11.80238 l -1.5529,-18.23532 c -0.4881,-5.59039 -5.058,-9.98284 -10.6928,-10.16032 l -11.1364,-0.35494 c -2.3076,-6.477758 -5.4133,-12.600118 -9.27289,-18.279688 l 6.07799,-9.13985 c 3.1949,-4.70214 2.3076,-11.00242 -1.9966,-14.64061 z M 934.39142,167.63619 c -19.69949,1.68643 -37.09271,-12.99988 -38.73389,-32.69891 -1.68643,-19.69947 13.00032,-37.092238 32.69889,-38.733868 19.69949,-1.68599 37.09269,13.000318 38.73389,32.699348 1.6864,19.69992 -13.0003,37.09225 -32.69889,38.73343 z"
       inkscape:connector-curvature="0"
       style="fill:#fff600;fill-opacity:1;stroke-width:0.44368181" />
    <path
       style="fill:#90f400;fill-opacity:1;stroke-width:0.44368181"
       d="m 709.08933,216.70784 c -7.00154,0.48971 -10.88715,7.72931 -9.97688,14.15367 -0.004,6.05141 -1.29757,13.63875 4.83919,17.36007 3.87597,2.42103 8.64496,2.0019 12.99086,2.82723 0.4353,5.35143 5.7892,10.84644 4.98226,15.40973 -3.67958,4.46077 -8.78362,9.55015 -6.40335,15.89747 2.34847,5.3326 7.41569,8.80155 11.23913,13.06637 4.89118,4.4557 12.25532,2.68898 16.52761,-1.67366 3.11102,-4.22747 6.54416,-2.3043 10.30989,0.14892 3.96179,2.095 10.08652,1.9023 8.94591,7.76413 -0.0868,5.92518 2.75485,12.60121 9.25936,13.64396 5.73423,0.17249 11.67673,0.9163 17.30593,-0.34413 6.45471,-2.0602 7.42749,-9.16642 7.87345,-14.95297 1.38568,-4.99865 10.42146,-3.65522 14.32969,-7.31786 3.03302,-2.28461 5.35103,2.64439 8.03074,3.94079 5.08538,4.50863 12.95438,2.58844 16.8057,-2.53424 4.33866,-4.41475 10.9037,-8.87702 9.17614,-16.03527 -0.95271,-4.29416 -4.46176,-7.26497 -6.85801,-10.77449 3.84971,-4.4269 4.18419,-12.57112 8.12546,-15.67029 5.79931,-0.30513 12.92017,-1.12427 15.13689,-7.52595 1.36613,-5.59921 0.82125,-11.5552 0.75763,-17.29411 -0.87022,-6.40358 -7.3224,-9.50319 -13.18252,-9.54524 -6.09871,0.67395 -4.30247,-7.73768 -7.28244,-11.31066 -3.62127,-3.75565 -1.13684,-6.69946 1.77922,-9.69726 4.8374,-5.03674 3.08589,-13.2523 -2.21705,-17.19387 -4.4146,-4.33893 -8.87712,-10.90414 -16.0355,-9.17623 -3.98518,0.81117 -6.75297,4.0143 -9.97567,6.23656 -4.60212,-3.99471 -12.98031,-4.39208 -16.29042,-8.3913 -0.24048,-5.68949 -1.26036,-12.58464 -7.48242,-14.73776 -5.59925,-1.36544 -11.55513,-0.82175 -17.29399,-0.75765 -6.40138,0.87082 -9.50842,7.32191 -9.54041,13.18346 0.4999,6.17634 -8.61073,4.10435 -12.12319,7.46451 -3.84142,3.76363 -6.93941,1.73426 -10.03936,-1.47839 -5.03089,-4.8769 -13.28911,-3.14878 -17.2421,2.17739 -4.3456,4.43477 -10.9505,8.89696 -9.22054,16.07976 0.94196,4.28779 4.45585,7.23931 6.85743,10.72982 -3.69741,4.46119 -3.86738,12.60052 -7.72565,15.67091 -2.12766,0.21886 -4.25533,0.43772 -6.38299,0.65658 z m 72.45324,-12.68975 c 17.26593,-0.35296 31.80449,17.06021 28.45273,33.98698 -2.30164,17.06232 -21.6078,28.80547 -37.82031,22.98928 -16.49309,-4.81822 -25.27857,-25.5791 -17.15408,-40.74762 4.81569,-9.89301 15.50727,-16.47322 26.52166,-16.22864 z"
       id="path3867"
       inkscape:connector-curvature="0" />
    <text
       xml:space="preserve"
       style="font-style:normal;font-variant:normal;font-weight:normal;font-stretch:normal;font-size:40px;line-height:1.25;font-family:'URW Gothic L';-inkscape-font-specification:'URW Gothic L';letter-spacing:0px;word-spacing:0px;fill:#000000;fill-opacity:1;stroke:none"
       x="556.05865"
       y="249.37567"
       id="text4796"><tspan
         sodipodi:role="line"
         id="tspan4794"
         x="556.05865"
         y="249.37567"
         style="font-style:normal;font-variant:normal;font-weight:normal;font-stretch:normal;font-size:85.33333588px;line-height:1.25;font-family:'URW Gothic L';-inkscape-font-specification:'URW Gothic L';text-align:end;text-anchor:end;fill:#ffffff">Gears</tspan></text>
  </g>
</svg>
